Coordinates
version=1
nRows=22
nColumns=24
inDegrees=yes

Units are S.I. units (second, meters, Newtons, ...)
Angles are in degrees.

endheader
time	pelvis_tilt	pelvis_list	pelvis_rotation	pelvis_tx	pelvis_ty	pelvis_tz	hip_flexion_r	hip_adduction_r	hip_rotation_r	knee_angle_r	ankle_angle_r	subtalar_angle_r	mtp_angle_r	hip_flexion_l	hip_adduction_l	hip_rotation_l	knee_angle_l	ankle_angle_l	subtalar_angle_l	mtp_angle_l	lumbar_extension	lumbar_bending	lumbar_rotation
      7.19000000	     -5.05648225	      4.29786196	     -3.75799173	      1.71782444	      0.65564886	     -0.13469644	      3.56185939	     -4.18447595	     -1.26897280	    -55.99714970	    -25.07437475	    -22.03601411	      0.00000000	     25.08186375	      9.04884075	      1.63096105	    -26.83421745	     10.09920330	    -20.96230081	      0.00000000	    -12.16755204	    -13.40377367	      2.34801529
      7.20000000	     -5.04098813	      4.31617503	     -3.55393073	      1.72666933	      0.65702218	     -0.13578065	      6.12385996	     -4.19096170	     -0.99550733	    -59.24496290	    -24.10422206	    -23.33429179	      0.00000000	     24.01001305	      9.25718526	      1.72035647	    -26.46581566	     10.88187679	    -20.53800899	      0.00000000	    -12.48723114	    -13.28756654	      1.60737686
      7.21000000	     -4.97830997	      4.25777030	     -3.28653174	      1.73549184	      0.65845009	     -0.13686135	      8.58300272	     -4.05169550	     -0.71266755	    -62.08089897	    -21.77336941	    -24.20916881	      0.00000000	     22.81348388	      9.38738627	      1.86803057	    -25.97045811	     11.63652845	    -19.96897614	      0.00000000	    -12.83721516	    -13.09102585	      0.88334745
      7.22000000	     -4.88035136	      4.12306491	     -2.93668816	      1.74425372	      0.65992138	     -0.13795925	     10.94746567	     -3.78531331	     -0.45682827	    -64.49045350	    -18.55591050	    -24.72541406	      0.00000000	     21.53171004	      9.43904673	      2.06254255	    -25.39020691	     12.34652146	    -19.36521489	      0.00000000	    -13.22546089	    -12.81210048	      0.15347285
      7.23000000	     -4.77503301	      3.93368388	     -2.51491645	      1.75296262	      0.66140896	     -0.13906335	     13.24216550	     -3.43440313	     -0.23499105	    -66.47197482	    -14.90377266	    -24.88805897	      0.00000000	     20.20371757	      9.41825162	      2.26402915	    -24.73411640	     13.03319727	    -18.68667935	      0.00000000	    -13.61738978	    -12.46973350	     -0.56920854
      7.24000000	     -4.66274638	      3.72762111	     -2.03991001	      1.76161173	      0.66288703	     -0.14015534	     15.46623284	     -3.05975473	     -0.04408191	    -68.03383226	    -11.27004442	    -24.77466302	      0.00000000	     18.84742815	      9.35218684	      2.42712125	    -24.02214846	     13.71669607	    -17.95030782	      0.00000000	    -14.01818948	    -12.11414014	     -1.29215321
      7.25000000	     -4.56793787	      3.51095285	     -1.46949584	      1.77021083	      0.66433555	     -0.14126964	     17.61915598	     -2.70359445	      0.05092116	    -69.15697624	     -8.06641782	    -24.57899482	      0.00000000	     17.47689070	      9.26834132	      2.67303689	    -23.23996878	     14.30244469	    -17.12466721	      0.00000000	    -14.41006954	    -11.74630844	     -2.02220095
      7.26000000	     -4.48056329	      3.30032939	     -0.83469555	      1.77875767	      0.66571025	     -0.14237066	     19.68868520	     -2.40200414	      0.05990047	    -69.85404567	     -5.47007632	    -24.43703264	      0.00000000	     16.10694875	      9.16672651	      2.92017034	    -22.42589995	     14.87945026	    -16.29337008	      0.00000000	    -14.80310372	    -11.39351696	     -2.77514622
      7.27000000	     -4.40516423	      3.08705904	     -0.14081874	      1.78724200	      0.66698246	     -0.14347951	     21.67161807	     -2.15135883	     -0.00576944	    -70.13020667	     -3.56054539	    -24.44497650	      0.00000000	     14.74838369	      9.05444560	      3.26562743	    -21.60460635	     15.39042153	    -15.44171479	      0.00000000	    -15.19375788	    -11.02423260	     -3.53512184
      7.28000000	     -4.37108503	      2.89703552	      0.61940163	      1.79565947	      0.66809737	     -0.14456875	     23.58118760	     -1.98039329	     -0.13948296	    -69.97126775	     -2.40994867	    -24.87097168	      0.00000000	     13.43469002	      8.96483279	      3.74723507	    -20.77140755	     15.81144775	    -14.84874126	      0.00000000	    -15.56744130	    -10.69094013	     -4.38012170
      7.29000000	     -4.27753179	      2.64854964	      1.39295945	      1.80410747	      0.66914707	     -0.14562267	     25.29516527	     -1.82936839	     -0.38919727	    -69.38597544	     -1.26578167	    -24.99036544	      0.00000000	     12.07740303	      8.76804906	      4.15820758	    -19.97531653	     16.30628752	    -13.95465296	      0.00000000	    -15.98682938	    -10.29285474	     -5.06946993
      7.30000000	     -4.27372402	      2.46810847	      2.19626384	      1.81251432	      0.66992782	     -0.14667564	     26.97947843	     -1.80068543	     -0.65225364	    -68.40229506	     -0.57195676	    -25.49991594	      0.00000000	     10.82970975	      8.65005394	      4.72994174	    -19.19933777	     16.70414707	    -13.42711204	      0.00000000	    -16.30916842	     -9.97136860	     -5.84707843
      7.31000000	     -4.16435436	      2.21528486	      3.01200533	      1.82096773	      0.67067669	     -0.14769784	     28.37246049	     -1.75274368	     -1.01533633	    -66.94638501	     -0.02398777	    -26.03915351	      0.00000000	      9.49396748	      8.41561566	      5.29333118	    -18.46851000	     17.15789195	    -12.72104281	      0.00000000	    -16.73938049	     -9.56190927	     -6.51680539
      7.32000000	     -4.17743903	      2.04296415	      3.83757983	      1.82939450	      0.67111034	     -0.14871552	     29.75494788	     -1.84492601	     -1.39383867	    -65.11418303	      0.43652793	    -26.63558957	      0.00000000	      8.31318119	      8.26027587	      5.93470108	    -17.77541573	     17.57196676	    -12.23304451	      0.00000000	    -17.02391766	     -9.25260107	     -7.21808301
      7.33000000	     -4.04247854	      1.82540995	      4.63066025	      1.83788964	      0.67154865	     -0.14967037	     30.76464657	     -1.90008490	     -1.81498826	    -62.77549604	      0.57450541	    -27.48116008	      0.00000000	      7.00667807	      7.99584897	      6.46338076	    -17.12827692	     18.02358750	    -11.57631895	      0.00000000	    -17.45672468	     -8.88809752	     -7.75884513
      7.34000000	     -4.00567431	      1.68396335	      5.42144677	      1.84638424	      0.67170240	     -0.15060372	     31.70549394	     -2.07331437	     -2.25604440	    -60.04544366	      0.60000709	    -28.31851409	      0.00000000	      5.83231167	      7.78902365	      6.96683425	    -16.52763887	     18.49356031	    -10.93942881	      0.00000000	    -17.77681838	     -8.61980954	     -8.29819211
      7.35000000	     -4.11190650	      1.66251491	      6.24224756	      1.85489996	      0.67153015	     -0.15157484	     32.62087843	     -2.45481252	     -2.78383583	    -56.96269563	      0.77878009	    -28.75511054	      0.00000000	      4.81967008	      7.71024247	      7.52736977	    -15.96687419	     18.88521922	    -10.45353324	      0.00000000	    -17.93326839	     -8.50097659	     -8.82403855
      7.36000000	     -3.98148186	      1.60553480	      6.98026260	      1.86356439	      0.67145016	     -0.15240719	     33.01825174	     -2.71195588	     -3.27338018	    -53.34910909	      0.43974497	    -29.39980550	      0.00000000	      3.56757968	      7.49918601	      7.84214280	    -15.41878303	     19.37359307	     -9.65246066	      0.00000000	    -18.34556704	     -8.33312167	     -9.22346083
      7.37000000	     -4.02632380	      1.67407275	      7.76545177	      1.87229129	      0.67100118	     -0.15328741	     33.39887760	     -3.16110782	     -3.83031410	    -49.40484265	      0.23325423	    -29.56945863	      0.00000000	      2.51335742	      7.42542003	      8.18865926	    -14.93705223	     19.84661103	     -8.88640473	      0.00000000	    -18.55603689	     -8.31885813	     -9.65364459
      7.38000000	     -4.07453538	      1.82029769	      8.55272231	      1.88115963	      0.67036752	     -0.15416074	     33.54983782	     -3.68169205	     -4.40674595	    -45.09864098	      0.09301395	    -29.20925998	      0.00000000	      1.45052959	      7.40789187	      8.52557258	    -14.47703088	     20.28472090	     -8.12593062	      0.00000000	    -18.75668259	     -8.39049930	    -10.06633078
      7.39000000	     -4.08430021	      2.02898130	      9.33130211	      1.89021154	      0.66958215	     -0.15501495	     33.42477922	     -4.22647319	     -4.96735657	    -40.46144948	      0.08118077	    -28.20045426	      0.00000000	      0.33710169	      7.42056584	      8.82409217	    -14.05209635	     20.72896789	     -7.32343675	      0.00000000	    -18.98787129	     -8.52275604	    -10.45907739
      7.40000000	     -4.06668927	      2.32256612	     10.08308522	      1.89946617	      0.66861915	     -0.15583219	     33.06755485	     -4.79842557	     -5.45667988	    -35.59906590	      0.41216006	    -26.29161257	      0.00000000	     -0.81146164	      7.48898577	      9.05304928	    -13.68254567	     21.18995554	     -6.49559234	      0.00000000	    -19.24328981	     -8.73842672	    -10.84853981
